<?xml version="1.0" ?><svg id="Layer_1" style="enable-background:new 0 0 512 512;" version="1.1"
                           viewBox="0 0 512 512" xml:space="preserve" xmlns="http://www.w3.org/2000/svg"
                           xmlns:xlink="http://www.w3.org/1999/xlink"><g id="video"><polygon id="XMLID_4195_"
                                                                                           points="339.7,6 339.7,112.8 448.3,112.8  "/><polygon id="XMLID_4197_" points="298,318.3 297.6,318.3 296.4,321.4 277.2,351 298,351  "/><path d="M367.6,338.6L367.6,338.6c0-49.1-39.8-88.9-88.9-88.9h-215v177.8h215   C327.8,427.5,367.6,387.7,367.6,338.6z M180.5,379.5h-13.4V322l-0.3-0.1l-22,57.5h-9.2l-22.4-58.6l-0.3,0.1v58.5H99.5v-80H117   l23,61.5h0.3l23.1-61.5h17V379.5z M248.8,342.4c-5,4.5-11.9,6.8-20.7,6.8h-17.3v30.3h-13.4v-80H228c8.8,0,15.7,2.3,20.7,6.8   s7.5,10.6,7.5,18C256.3,331.8,253.8,337.9,248.8,342.4z M264.2,353.6l33.4-54.1h13.7V351h10.1v10.8h-10.1v17.7H298v-17.7h-33.5   L264.2,353.6z" id="XMLID_4200_"/><path d="M228,310.2h-17.3v28.2H228c4.9,0,8.7-1.3,11.2-4c2.5-2.6,3.7-6,3.7-10.1s-1.2-7.5-3.7-10.2   C236.7,311.6,233,310.2,228,310.2z" id="XMLID_4206_"/><path d="M327.7,6.3H81v231.3h197.7c55.6,0,100.9,45.3,100.9,100.9s-45.3,100.9-100.9,100.9H81V506h366.6   l0.6-381.2H327.7V6.3z" id="XMLID_4207_"/></g></svg>